<svg width="20" height="18" viewBox="0 0 20 18" fill="none" xmlns="http://www.w3.org/2000/svg">
<path fill-rule="evenodd" clip-rule="evenodd" d="M10.5091 2.97423L9.99998 3.49115L9.49082 2.97415C8.56253 2.0311 7.29461 1.50003 5.97132 1.50003C4.64804 1.50003 3.38012 2.0311 2.45182 2.97415V2.97415C0.516058 4.9634 0.516058 8.13228 2.45182 10.1215L7.84447 15.5972C8.41301 16.1747 9.18957 16.5 10 16.5C10.8105 16.5 11.587 16.1747 12.1556 15.5972L17.5482 10.1216C19.4839 8.13238 19.4839 4.9635 17.5482 2.97424V2.97424C16.6199 2.03115 15.3519 1.50007 14.0286 1.50007C12.7053 1.50007 11.4374 2.03114 10.5091 2.97423Z" stroke="#4A5568" stroke-width="1.5" stroke-linecap="round" stroke-linejoin="round"/>
</svg>
